# xmcd CD database file
#
# Track frame offsets:
#	150
#	8877
#	24555
#	45070
#	61777
#	74437
#	108345
#	121785
#	132012
#	162950
#	179620
#	187940
#	206115
#	217925
#	240592
#	254375
#	270572
#	286132
#
# Disc length: 4166 seconds
#
# Revision: 1
# Processed by: cddbd v1.4PL0 Copyright (c) Steve Scherf et al.
# Submitted via: CDex 1.40Beta6
#
DISCID=f2104412
DTITLE=Cuby and Blizzards - Blues Traveller (Disk 1)
DYEAR=2000
DGENRE=Blues
TTITLE0=Stumble and fail
TTITLE1=L.S.D. (Got a million dollars)
TTITLE2=Back home (A man)
TTITLE3=You don't know
TTITLE4=Just for fun
TTITLE5=Gin house blues
TTITLE6=Desolation blues
TTITLE7=Let's make it
TTITLE8=Somebody will know someday
TTITLE9=So many roads
TTITLE10=Another day, another road
TTITLE11=Crying tears
TTITLE12=Feeling like a suitcase
TTITLE13=Don't know which way to go
TTITLE14=Distant smile
TTITLE15=Nostalgic toilet
TTITLE16=Windows of my eyes
TTITLE17=The sky is crying
EXTD=
EXTT0=
EXTT1=
EXTT2=
EXTT3=
EXTT4=
EXTT5=
EXTT6=
EXTT7=
EXTT8=
EXTT9=
EXTT10=
EXTT11=
EXTT12=
EXTT13=
EXTT14=
EXTT15=
EXTT16=
EXTT17=
PLAYORDER=
